<svg id="Layer_1" data-name="Layer 1" xmlns="http://www.w3.org/2000/svg" viewBox="0 0 3105.25 1702.57"><defs><style>.cls-1,.cls-2{fill:#d9d9d9;fill-rule:evenodd;}.cls-1,.cls-10,.cls-11,.cls-12,.cls-13,.cls-14,.cls-15,.cls-16,.cls-2,.cls-3,.cls-4,.cls-5,.cls-6,.cls-7,.cls-8,.cls-9{stroke:#0d0d0d;stroke-linecap:round;stroke-linejoin:round;}.cls-1{stroke-width:13.05px;}.cls-2{stroke-width:20.47px;}.cls-3,.cls-4{fill:none;}.cls-3{stroke-width:13.56px;}.cls-10,.cls-11,.cls-12,.cls-13,.cls-14,.cls-15,.cls-16,.cls-4,.cls-5,.cls-6,.cls-7,.cls-8,.cls-9{stroke-width:46.77px;}.cls-5{fill:#a0220a;}.cls-6{fill:#6dbe93;}.cls-7{fill:#91d0d6;}.cls-8{fill:#e00914;}.cls-9{fill:#008056;}.cls-10{fill:#19ab6e;}.cls-11{fill:#00b4d5;}.cls-12{fill:#fbf6e2;}.cls-13{fill:#deddd4;}.cls-14{fill:#1d1d1b;}.cls-15{fill:#5d5b59;}.cls-16{fill:#685f5a;}</style></defs><g id="Lamp"><path class="cls-1" d="M1060.08,1312.76a91.53,91.53,0,0,1-91.4-91.56l-183-.16a91.52,91.52,0,0,1-91.56,91.4l-.4,460.82a91.53,91.53,0,0,0,91.4,91.58l183,.15a91.51,91.51,0,0,0,91.56-91.41Z" transform="translate(-96.64 -168.95)"/><path class="cls-2" d="M1227.94,1407.08l-.41,272.38-167.72-68.35.2-136.18Z" transform="translate(-96.64 -168.95)"/><path class="cls-3" d="M1060.08,1298.33,694.16,1298c.1-124.51,82.18-225.53,183.15-225.45S1060.18,1173.81,1060.08,1298.33Z" transform="translate(-96.64 -168.95)"/><rect class="cls-4" x="715.68" y="1237.82" width="137.56" height="100.49"/><rect class="cls-5" x="715.68" y="1237.82" width="137.56" height="100.49"/><rect class="cls-5" x="715.49" y="1459.95" width="137.56" height="100.49"/></g><g id="Lamp-2" data-name="Lamp"><path class="cls-1" d="M1663.25,1312.76a91.53,91.53,0,0,1-91.4-91.56l-183-.16a91.52,91.52,0,0,1-91.56,91.4l-.4,460.82a91.53,91.53,0,0,0,91.4,91.58l183,.15a91.51,91.51,0,0,0,91.56-91.41Z" transform="translate(-96.64 -168.95)"/><path class="cls-2" d="M1831.11,1407.08l-.41,272.38L1663,1611.11l.2-136.18Z" transform="translate(-96.64 -168.95)"/><path class="cls-3" d="M1663.25,1298.33l-365.92-.32c.1-124.51,82.18-225.53,183.15-225.45S1663.35,1173.81,1663.25,1298.33Z" transform="translate(-96.64 -168.95)"/><rect class="cls-4" x="1318.85" y="1237.82" width="137.56" height="100.49"/><rect class="cls-6" x="1318.85" y="1237.82" width="137.56" height="100.49"/><rect class="cls-6" x="1318.66" y="1459.95" width="137.56" height="100.49"/></g><g id="Lamp-3" data-name="Lamp"><path class="cls-1" d="M2297.14,1312.76a91.52,91.52,0,0,1-91.4-91.56l-183-.16a91.53,91.53,0,0,1-91.56,91.4l-.41,460.82a91.54,91.54,0,0,0,91.41,91.58l183,.15a91.5,91.5,0,0,0,91.55-91.41Z" transform="translate(-96.64 -168.95)"/><path class="cls-2" d="M2465,1407.08l-.41,272.38-167.72-68.35.2-136.18Z" transform="translate(-96.64 -168.95)"/><path class="cls-3" d="M2297.13,1298.33l-365.92-.32c.11-124.51,82.18-225.53,183.16-225.45S2297.24,1173.81,2297.13,1298.33Z" transform="translate(-96.64 -168.95)"/><rect class="cls-4" x="1952.73" y="1237.82" width="137.56" height="100.49"/><rect class="cls-7" x="1952.73" y="1237.82" width="137.56" height="100.49"/><rect class="cls-7" x="1952.54" y="1459.95" width="137.56" height="100.49"/></g><g id="Lamp-4" data-name="Lamp"><path class="cls-1" d="M1060.48,427a91.51,91.51,0,0,1-91.4-91.55l-183-.16a91.52,91.52,0,0,1-91.56,91.39l-.4,460.83a91.51,91.51,0,0,0,91.4,91.57l183,.16a91.52,91.52,0,0,0,91.56-91.41Z" transform="translate(-96.64 -168.95)"/><path class="cls-2" d="M1228.34,521.33l-.41,272.38L1060.2,725.36l.21-136.19Z" transform="translate(-96.64 -168.95)"/><path class="cls-3" d="M1060.47,412.58l-365.92-.32c.11-124.52,82.19-225.54,183.16-225.45S1060.58,288.06,1060.47,412.58Z" transform="translate(-96.64 -168.95)"/><rect class="cls-4" x="716.07" y="352.07" width="137.56" height="100.49"/><rect class="cls-8" x="716.07" y="352.07" width="137.56" height="100.49"/><rect class="cls-8" x="715.88" y="574.2" width="137.56" height="100.49"/></g><g id="Lamp-5" data-name="Lamp"><path class="cls-1" d="M1663.65,427a91.51,91.51,0,0,1-91.4-91.55l-183-.16a91.52,91.52,0,0,1-91.56,91.39l-.4,460.83a91.51,91.51,0,0,0,91.4,91.57l183,.16a91.52,91.52,0,0,0,91.56-91.41Z" transform="translate(-96.64 -168.95)"/><path class="cls-2" d="M1831.5,521.33l-.4,272.38-167.73-68.35.2-136.19Z" transform="translate(-96.64 -168.95)"/><path class="cls-3" d="M1663.64,412.58l-365.92-.32c.11-124.52,82.18-225.54,183.16-225.45S1663.75,288.06,1663.64,412.58Z" transform="translate(-96.64 -168.95)"/><rect class="cls-4" x="1319.24" y="352.07" width="137.56" height="100.49"/><rect class="cls-9" x="1319.24" y="352.07" width="137.56" height="100.49"/><rect class="cls-10" x="1319.05" y="574.2" width="137.56" height="100.49"/></g><g id="Lamp-6" data-name="Lamp"><path class="cls-1" d="M2311.1,427a91.52,91.52,0,0,1-91.4-91.55l-183-.16a91.51,91.51,0,0,1-91.56,91.39l-.4,460.83a91.51,91.51,0,0,0,91.4,91.57l183,.16a91.51,91.51,0,0,0,91.56-91.41Z" transform="translate(-96.64 -168.95)"/><path class="cls-2" d="M2479,521.33l-.41,272.38-167.72-68.35.2-136.19Z" transform="translate(-96.64 -168.95)"/><path class="cls-3" d="M2311.1,412.58l-365.92-.32c.1-124.52,82.18-225.54,183.15-225.45S2311.2,288.06,2311.1,412.58Z" transform="translate(-96.64 -168.95)"/><rect class="cls-4" x="1966.7" y="352.07" width="137.56" height="100.49"/><rect class="cls-11" x="1966.7" y="352.07" width="137.56" height="100.49"/><rect class="cls-11" x="1966.51" y="574.2" width="137.56" height="100.49"/></g><g id="Lamp-7" data-name="Lamp"><path class="cls-1" d="M3023.41,477.62A91.53,91.53,0,0,1,2932,386.06l-183-.16a91.51,91.51,0,0,1-91.55,91.4l-.41,460.83a91.52,91.52,0,0,0,91.4,91.57l183,.16A91.52,91.52,0,0,0,3023,938.44Z" transform="translate(-96.64 -168.95)"/><path class="cls-2" d="M3191.26,572l-.41,272.37L3023.13,776l.2-136.19Z" transform="translate(-96.64 -168.95)"/><path class="cls-3" d="M3023.4,463.19l-365.92-.32c.11-124.51,82.18-225.53,183.15-225.44S3023.51,338.68,3023.4,463.19Z" transform="translate(-96.64 -168.95)"/><rect class="cls-4" x="2679" y="402.68" width="137.56" height="100.49"/><rect class="cls-12" x="2679" y="402.68" width="137.56" height="100.49"/><rect class="cls-12" x="2678.81" y="624.82" width="137.56" height="100.49"/></g><g id="Lamp-8" data-name="Lamp"><path class="cls-1" d="M3023.8,1312.76a91.52,91.52,0,0,1-91.4-91.56l-183-.16a91.52,91.52,0,0,1-91.56,91.4l-.4,460.82a91.52,91.52,0,0,0,91.4,91.58l183,.15a91.51,91.51,0,0,0,91.56-91.41Z" transform="translate(-96.64 -168.95)"/><path class="cls-2" d="M3191.66,1407.08l-.41,272.38-167.73-68.35.21-136.18Z" transform="translate(-96.64 -168.95)"/><path class="cls-3" d="M3023.79,1298.33l-365.92-.32c.11-124.51,82.19-225.53,183.16-225.45S3023.9,1173.81,3023.79,1298.33Z" transform="translate(-96.64 -168.95)"/><rect class="cls-4" x="2679.4" y="1237.82" width="137.56" height="100.49"/><rect class="cls-13" x="2679.4" y="1237.82" width="137.56" height="100.49"/><rect class="cls-13" x="2679.2" y="1459.95" width="137.56" height="100.49"/></g><g id="Lamp-9" data-name="Lamp"><path class="cls-1" d="M469.49,415.92a91.51,91.51,0,0,1-91.4-91.55l-183-.16a91.51,91.51,0,0,1-91.56,91.39l-.4,460.83A91.51,91.51,0,0,0,194.57,968l183,.16a91.51,91.51,0,0,0,91.56-91.41Z" transform="translate(-96.64 -168.95)"/><path class="cls-2" d="M637.35,510.25l-.41,272.38L469.21,714.28l.21-136.19Z" transform="translate(-96.64 -168.95)"/><path class="cls-3" d="M469.48,401.5l-365.92-.32c.11-124.52,82.19-225.54,183.16-225.45S469.59,277,469.48,401.5Z" transform="translate(-96.64 -168.95)"/><rect class="cls-4" x="125.09" y="340.99" width="137.56" height="100.49"/><rect class="cls-14" x="125.09" y="340.99" width="137.56" height="100.49"/><rect class="cls-14" x="124.89" y="563.12" width="137.56" height="100.49"/></g><g id="Lamp-10" data-name="Lamp"><path class="cls-1" d="M469.89,1312.76a91.53,91.53,0,0,1-91.41-91.56l-183-.16a91.52,91.52,0,0,1-91.56,91.4l-.4,460.82a91.53,91.53,0,0,0,91.4,91.58l183,.15a91.51,91.51,0,0,0,91.56-91.41Z" transform="translate(-96.64 -168.95)"/><path class="cls-2" d="M637.74,1407.08l-.41,272.38-167.72-68.35.2-136.18Z" transform="translate(-96.64 -168.95)"/><path class="cls-3" d="M469.88,1298.33,104,1298c.11-124.51,82.18-225.53,183.15-225.45S470,1173.81,469.88,1298.33Z" transform="translate(-96.64 -168.95)"/><rect class="cls-4" x="125.48" y="1237.82" width="137.56" height="100.49"/><rect class="cls-15" x="125.48" y="1237.82" width="137.56" height="100.49"/><rect class="cls-16" x="125.29" y="1459.95" width="137.56" height="100.49"/></g></svg>