<?xml version="1.0" encoding="utf-8"?>
<!-- Generator: Adobe Illustrator 25.2.0, SVG Export Plug-In . SVG Version: 6.00 Build 0)  -->
<svg version="1.1" id="Layer_1" xmlns:serif="http://www.serif.com/"
	 xmlns="http://www.w3.org/2000/svg" xmlns:xlink="http://www.w3.org/1999/xlink" x="0px" y="0px" viewBox="0 0 595.3 841.9"
	 style="enable-background:new 0 0 595.3 841.9;" xml:space="preserve">
<style type="text/css">
	
		.st0{fill-rule:evenodd;clip-rule:evenodd;fill:#D3CCA6;stroke:#595959;stroke-width:10;stroke-linecap:round;stroke-linejoin:round;stroke-miterlimit:1.5;}
	
		.st1{fill-rule:evenodd;clip-rule:evenodd;fill:#5873B1;stroke:#0D0D0D;stroke-width:10;stroke-linecap:round;stroke-linejoin:round;stroke-miterlimit:1.5;}
	
		.st2{fill-rule:evenodd;clip-rule:evenodd;fill:#E6611A;stroke:#0D0D0D;stroke-width:10;stroke-linecap:round;stroke-linejoin:round;stroke-miterlimit:10;}
	
		.st3{fill-rule:evenodd;clip-rule:evenodd;fill:#D3CCA6;stroke:#595959;stroke-width:10;stroke-linecap:round;stroke-linejoin:round;stroke-miterlimit:10;}
	.st4{fill-rule:evenodd;clip-rule:evenodd;fill:#D3CCA6;}
	.st5{clip-path:url(#SVGID_2_);}
	
		.st6{fill-rule:evenodd;clip-rule:evenodd;fill:#FFFFFF;stroke:#FFFFFF;stroke-width:10;stroke-linecap:round;stroke-linejoin:round;stroke-miterlimit:1.5;}
	
		.st7{fill-rule:evenodd;clip-rule:evenodd;fill:#FFFFFF;stroke:#000000;stroke-width:10;stroke-linecap:round;stroke-linejoin:round;stroke-miterlimit:10;}
	.st8{fill:none;stroke:#595959;stroke-width:10;stroke-linecap:round;stroke-linejoin:round;stroke-miterlimit:1.5;}
	
		.st9{fill-rule:evenodd;clip-rule:evenodd;fill:#87A9D7;stroke:#0D0D0D;stroke-width:10;stroke-linecap:round;stroke-linejoin:round;stroke-miterlimit:10;}
	
		.st10{fill-rule:evenodd;clip-rule:evenodd;fill:#E6611A;stroke:#000000;stroke-width:10;stroke-linecap:round;stroke-linejoin:round;stroke-miterlimit:10;}
	.st11{fill:#FFFFFF;stroke:#000000;stroke-miterlimit:10;}
</style>
<g transform="matrix(1,0,0,1,-1691.7,-943.608)">
	<g id="Walk_Body" transform="matrix(0.774994,0,0,0.774994,1030.6,567.791)">
		<g id="ArmRight" transform="matrix(-1.15237,0,0,-1,3586.33,2180.27)">
			<g transform="matrix(-0.295752,-0.872061,0.803015,-0.272335,2237.38,3262.17)">
				<path class="st0" d="M2254.1,962.9H2185l17.3-67h34.6L2254.1,962.9z"/>
			</g>
			<path class="st1" d="M2174.5,1143.9c1.1,0,2.2-0.1,3.3-0.5l120.2-40.8c5-1.7,7.6-7.1,5.9-12l-6.1-18c-1.7-5-7.1-7.6-12-5.9
				l-109.9,37.3l-128.6-57.5c-4.8-2.1-10.4,0-12.5,4.8l-7.8,17.3c-2.1,4.8,0,10.4,4.8,12.5l138.5,61.9
				C2171.7,1143.7,2173.1,1143.9,2174.5,1143.9z"/>
		</g>
		<g id="Left-Leg" transform="matrix(1,0,0,1,-140.441,0)" serif:id="Left Leg">
			<g transform="matrix(1,0,0,1.3886,-86,-798.995)">
				<path class="st1" d="M1489.2,1471.7c0-5-5.6-9-12.5-9h-24.9c-6.9,0-12.5,4-12.5,9v133.2c0,5,5.6,9,12.5,9h24.9
					c6.9,0,12.5-4,12.5-9V1471.7z"/>
			</g>
			<g transform="matrix(1,0,0,1,-31.8089,-45)">
				<path class="st2" d="M1527.9,1539.3c0-25.4-20.6-46-46-46h-87.3l-9.4,9.4v49l1.9,1.9H1522l5.9-5.9V1539.3z"/>
			</g>
		</g>
		<g id="Body1" serif:id="Body">
			<g id="EarLeft" transform="matrix(-1,0,0,1,2898.86,121.425)">
				<path class="st3" d="M1800.5,477.2c-18.8,18.1-30.7,29.6-38.3,36.9c-2.7,2.6-4.8,4.7-6.6,6.3c-6.5,6.2-55.1,51-55.1,51
					l73.8-69.1L1800.5,477.2z M1830.7,445.4c9.2,7.8,26.9-1.9,12.5,15.1c-14.4,17-33.5,24.4-42.7,16.7c-9.2-7.8-5-27.9,9.4-44.9
					C1824.3,415.3,1821.5,437.6,1830.7,445.4z"/>
			</g>
			<g transform="matrix(0.939736,0,0,1.02429,-243.825,129.705)">
				<path class="st4" d="M1786.6,721.2c0-104.4-92.4-189.1-206.2-189.1h-3.6c-113.8,0-206.2,84.8-206.2,189.1V948
					c0,104.4,92.4,189.1,206.2,189.1h3.6c113.8,0,206.2-84.8,206.2-189.1V721.2z"/>
				<g>
					<defs>
						<path id="SVGID_1_" d="M1786.6,721.2c0-104.4-92.4-189.1-206.2-189.1h-3.6c-113.8,0-206.2,84.8-206.2,189.1V948
							c0,104.4,92.4,189.1,206.2,189.1h3.6c113.8,0,206.2-84.8,206.2-189.1V721.2z"/>
					</defs>
					<clipPath id="SVGID_2_">
						<use xlink:href="#SVGID_1_"  style="overflow:visible;"/>
					</clipPath>
					<g class="st5">
						<g id="Eyes" transform="matrix(1.06413,0,0,0.976287,259.461,-126.629)">
							<g transform="matrix(0.675676,0,0,0.9,463.392,215.4)">
								
									<ellipse transform="matrix(-0.9992 4.108885e-02 -4.108885e-02 -0.9992 2706.1321 1555.4963)" class="st6" cx="1337.1" cy="805.6" rx="16.4" ry="13.8"/>
							</g>
							<path class="st7" d="M1367.2,902.4c12.8,0,23.1,17,23.1,38c0,21-10.4,38-23.1,38c-12.8,0-23.1-17-23.1-38
								C1344.1,919.4,1354.5,902.4,1367.2,902.4z M1367.2,921.4c6.4,0,11.6,8.5,11.6,19c0,10.5-5.2,19-11.6,19
								c-6.4,0-11.6-8.5-11.6-19C1355.7,929.9,1360.8,921.4,1367.2,921.4z"/>
						</g>
					</g>
				</g>
				<path class="st8" d="M1786.6,721.2c0-104.4-92.4-189.1-206.2-189.1h-3.6c-113.8,0-206.2,84.8-206.2,189.1V948
					c0,104.4,92.4,189.1,206.2,189.1h3.6c113.8,0,206.2-84.8,206.2-189.1V721.2z"/>
			</g>
		</g>
		<g id="Jumper" transform="matrix(1,0,0,1,-874,572)">
			<path class="st9" d="M1906.4,425.6c53.1,43,130.3,70,216.2,70c77.4,0,147.7-22,199.7-57.8v78.3c0,113.8-92.4,206.2-206.2,206.2
				h-3.6c-113.8,0-206.2-92.4-206.2-206.2V425.6z"/>
		</g>
		<g id="ArmRight1" transform="matrix(1.15237,0,0,1,-900.367,269.797)" serif:id="ArmRight">
			<g transform="matrix(-0.295752,-0.872061,0.803015,-0.272335,2237.38,3262.17)">
				<path class="st0" d="M2537.2,837.7h-69.1l17.3-67h34.6L2537.2,837.7z"/>
			</g>
			<path class="st1" d="M1990.2,931.1c1.1,0,2.2-0.1,3.3-0.5l120.2-40.8c5-1.7,7.6-7.1,5.9-12l-6.1-18c-1.7-5-7.1-7.6-12-5.9
				l-109.9,37.3L1863,833.6c-4.8-2.1-10.4,0-12.5,4.8l-7.8,17.3c-2.1,4.8,0,10.4,4.8,12.5l138.5,61.9
				C1987.4,930.8,1988.8,931.1,1990.2,931.1z"/>
		</g>
		<g id="RightLeg" transform="matrix(1,0,0,1,-140.441,0)">
			<g transform="matrix(1,0,0,1.3886,-86,-798.995)">
				<path class="st1" d="M1489.2,1471.7c0-5-5.6-9-12.5-9h-24.9c-6.9,0-12.5,4-12.5,9v133.2c0,5,5.6,9,12.5,9h24.9
					c6.9,0,12.5-4,12.5-9V1471.7z"/>
			</g>
			<g transform="matrix(1,0,0,1,-31.8089,-45)">
				<path class="st2" d="M1527.9,1539.3c0-25.4-20.6-46-46-46h-87.3l-9.4,9.4v49l1.9,1.9H1522l5.9-5.9V1539.3z"/>
			</g>
		</g>
		<g transform="matrix(1.04428,0,0,1.04428,-774.104,26.3148)">
			<g id="Hat">
				<path id="Hat1" serif:id="Hat" class="st10" d="M1696.4,866.1v-88.8c0-121,98.2-219.2,219.2-219.2h3.8
					c119.8,0,217.2,96.2,219.2,215.5c0,0-126,2-171.5,2.7c-8.9,0.1-16.1,7.4-16.1,16.4c0,40.4,0,142.7,0,142.7
					C1881.5,931,1746.5,899,1696.4,866.1z"/>
			</g>
		</g>
		<g id="EarRight" transform="matrix(1.19065,0,0,1.04772,-573.114,104.132)">
			<path class="st0" d="M1616.7,474.7c-25.5,24.6-38.4,37-44.8,43.2c-6.5,6.2-39.4,44-39.4,44L1616.7,474.7z M1640.5,440.6
				c9.2,7.8,33.3,0.5,18.9,17.5c-14.4,17-33.5,24.4-42.7,16.7c-9.2-7.8-5-27.9,9.4-44.9C1640.5,412.9,1631.3,432.8,1640.5,440.6z"/>
		</g>
	</g>
</g>
<path class="st11" d="M1042,503.5"/>
</svg>
