<?xml version="1.0" encoding="UTF-8" standalone="no"?>
<!DOCTYPE svg PUBLIC "-//W3C//DTD SVG 1.1//EN" "http://www.w3.org/Graphics/SVG/1.1/DTD/svg11.dtd">
<svg width="100%" height="100%" viewBox="0 0 212 306" version="1.1" xmlns="http://www.w3.org/2000/svg" xmlns:xlink="http://www.w3.org/1999/xlink" xml:space="preserve" xmlns:serif="http://www.serif.com/" style="fill-rule:evenodd;clip-rule:evenodd;stroke-linecap:round;stroke-linejoin:round;stroke-miterlimit:1.5;">
    <g transform="matrix(1,0,0,1,-2081.4,-765.824)">
        <g id="Lamp" transform="matrix(1,0.000869963,-0.000869963,1,26.8795,-93.529)">
            <g transform="matrix(1.26667,0,-1.0842e-19,1.33714,-550.4,-310.171)">
                <path d="M2169,944.866C2154.51,944.866 2142.75,933.724 2142.75,920L2090.25,920C2090.25,933.724 2078.49,944.866 2064,944.866L2064,1070.13C2064,1083.86 2075.76,1095 2090.25,1095L2142.75,1095C2157.24,1095 2169,1083.86 2169,1070.13L2169,944.866Z" style="fill:rgb(217,217,217);stroke:rgb(13,13,13);stroke-width:13.05px;"/>
            </g>
            <g transform="matrix(0.000632451,-1,0.616161,0.000389692,1735.24,3415.15)">
                <path d="M2428,846L2329,846L2353.75,747L2403.25,747L2428,846Z" style="fill:rgb(217,217,217);stroke:rgb(13,13,13);stroke-width:20.47px;"/>
            </g>
            <g transform="matrix(1,0,0,1.46429,0,-220.5)">
                <path d="M2197,798L2064,798C2064,767.093 2093.8,742 2130.5,742C2167.2,742 2197,767.093 2197,798Z" style="fill:none;stroke:rgb(13,13,13);stroke-width:13.56px;"/>
            </g>
            <rect x="2107" y="987.476" width="50" height="36.524" style="fill:none;stroke:rgb(13,13,13);stroke-width:17px;"/>
            <rect x="2107" y="987.476" width="50" height="36.524" style="fill:white;stroke:rgb(13,13,13);stroke-width:17px;"/>
            <g transform="matrix(1,0,0,1,0,80.738)">
                <rect x="2107" y="987.476" width="50" height="36.524" style="fill:white;stroke:rgb(13,13,13);stroke-width:17px;"/>
            </g>
        </g>
    </g>
</svg>
